<svg width="31" height="31" viewBox="0 0 31 31" fill="none" xmlns="http://www.w3.org/2000/svg">
<circle cx="15.5" cy="15.5" r="15.5" fill="#EBEEF5"/>
<path d="M16.0762 18.9961H14.2598C14.2663 18.3711 14.3216 17.86 14.4258 17.4629C14.5365 17.0592 14.7155 16.6914 14.9629 16.3594C15.2103 16.0273 15.5391 15.6497 15.9492 15.2266C16.2487 14.9206 16.5221 14.6341 16.7695 14.3672C17.0234 14.0938 17.2285 13.8008 17.3848 13.4883C17.541 13.1693 17.6191 12.7884 17.6191 12.3457C17.6191 11.8965 17.5378 11.5091 17.375 11.1836C17.2188 10.8581 16.9844 10.6074 16.6719 10.4316C16.3659 10.2559 15.985 10.168 15.5293 10.168C15.1517 10.168 14.7936 10.2363 14.4551 10.373C14.1165 10.5098 13.8431 10.7214 13.6348 11.0078C13.4264 11.2878 13.319 11.6556 13.3125 12.1113H11.5059C11.5189 11.3757 11.7012 10.7441 12.0527 10.2168C12.4108 9.68945 12.8926 9.28581 13.498 9.00586C14.1035 8.72591 14.7806 8.58594 15.5293 8.58594C16.3561 8.58594 17.0592 8.73568 17.6387 9.03516C18.2246 9.33464 18.6706 9.76432 18.9766 10.3242C19.2826 10.8776 19.4355 11.5352 19.4355 12.2969C19.4355 12.8828 19.3151 13.4232 19.0742 13.918C18.8398 14.4062 18.5371 14.8652 18.166 15.2949C17.7949 15.7246 17.401 16.1348 16.9844 16.5254C16.6263 16.8574 16.3854 17.2318 16.2617 17.6484C16.138 18.0651 16.0762 18.5143 16.0762 18.9961ZM14.1816 22.0918C14.1816 21.7988 14.2728 21.5514 14.4551 21.3496C14.6374 21.1478 14.901 21.0469 15.2461 21.0469C15.5977 21.0469 15.8646 21.1478 16.0469 21.3496C16.2292 21.5514 16.3203 21.7988 16.3203 22.0918C16.3203 22.3717 16.2292 22.6126 16.0469 22.8145C15.8646 23.0163 15.5977 23.1172 15.2461 23.1172C14.901 23.1172 14.6374 23.0163 14.4551 22.8145C14.2728 22.6126 14.1816 22.3717 14.1816 22.0918Z" fill="black"/>
</svg>
