<svg width="95" height="46" viewBox="0 0 95 46" fill="none" xmlns="http://www.w3.org/2000/svg">
<path d="M12.15 30.3C9.95 30.3 8.06 29.86 6.48 28.98C4.92 28.08 3.72 26.82 2.88 25.2C2.04 23.56 1.62 21.63 1.62 19.41C1.62 17.19 2.04 15.27 2.88 13.65C3.72 12.03 4.92 10.78 6.48 9.9C8.06 9 9.95 8.55 12.15 8.55C13.25 8.55 14.33 8.69 15.39 8.97C16.45 9.25 17.38 9.65 18.18 10.17C18.7 10.51 19.01 10.92 19.11 11.4C19.21 11.86 19.15 12.29 18.93 12.69C18.71 13.07 18.38 13.33 17.94 13.47C17.5 13.59 17.01 13.47 16.47 13.11C15.85 12.71 15.18 12.42 14.46 12.24C13.74 12.06 13.01 11.97 12.27 11.97C10.13 11.97 8.5 12.62 7.38 13.92C6.26 15.2 5.7 17.03 5.7 19.41C5.7 21.79 6.26 23.63 7.38 24.93C8.5 26.23 10.13 26.88 12.27 26.88C13.03 26.88 13.78 26.79 14.52 26.61C15.26 26.41 15.96 26.11 16.62 25.71C17.16 25.37 17.64 25.26 18.06 25.38C18.48 25.5 18.79 25.75 18.99 26.13C19.21 26.49 19.28 26.89 19.2 27.33C19.12 27.77 18.85 28.16 18.39 28.5C17.59 29.08 16.63 29.53 15.51 29.85C14.41 30.15 13.29 30.3 12.15 30.3ZM31.4775 30.3C29.4375 30.3 27.6475 29.85 26.1075 28.95C24.5875 28.05 23.4075 26.79 22.5675 25.17C21.7275 23.53 21.3075 21.61 21.3075 19.41C21.3075 17.19 21.7275 15.27 22.5675 13.65C23.4075 12.03 24.5875 10.78 26.1075 9.9C27.6275 9 29.4175 8.55 31.4775 8.55C33.5375 8.55 35.3275 9 36.8475 9.9C38.3675 10.78 39.5475 12.03 40.3875 13.65C41.2275 15.27 41.6475 17.18 41.6475 19.38C41.6475 21.6 41.2275 23.53 40.3875 25.17C39.5475 26.79 38.3675 28.05 36.8475 28.95C35.3275 29.85 33.5375 30.3 31.4775 30.3ZM31.4775 27C33.4175 27 34.9275 26.33 36.0075 24.99C37.0875 23.65 37.6275 21.79 37.6275 19.41C37.6275 17.01 37.0875 15.15 36.0075 13.83C34.9475 12.51 33.4375 11.85 31.4775 11.85C29.5375 11.85 28.0275 12.51 26.9475 13.83C25.8675 15.15 25.3275 17.01 25.3275 19.41C25.3275 21.79 25.8675 23.65 26.9475 24.99C28.0275 26.33 29.5375 27 31.4775 27ZM53.4248 30.24C52.4048 30.24 51.6748 29.74 51.2348 28.74L43.4048 11.16C43.0848 10.4 43.0948 9.79 43.4348 9.33C43.7948 8.85 44.3148 8.61 44.9948 8.61C45.5748 8.61 46.0048 8.74 46.2848 9C46.5848 9.24 46.8348 9.61 47.0348 10.11L53.4848 25.08L59.9348 10.08C60.1548 9.6 60.4148 9.24 60.7148 9C61.0148 8.74 61.4348 8.61 61.9748 8.61C62.6148 8.61 63.0948 8.85 63.4148 9.33C63.7548 9.81 63.7548 10.42 63.4148 11.16L55.5848 28.74C55.3648 29.24 55.0848 29.62 54.7448 29.88C54.4248 30.12 53.9848 30.24 53.4248 30.24ZM68.3316 30.24C67.0516 30.24 66.4116 29.58 66.4116 28.26V10.59C66.4116 9.27 67.0516 8.61 68.3316 8.61C69.6116 8.61 70.2516 9.27 70.2516 10.59V28.26C70.2516 29.58 69.6116 30.24 68.3316 30.24Z" fill="#FF6B61"/>
<path d="M17.23 45.24C15.95 45.24 15.31 44.58 15.31 43.26L15.31 25.59C15.31 24.27 15.95 23.61 17.23 23.61C18.51 23.61 19.15 24.27 19.15 25.59V32.67H30.04L30.04 25.59C30.04 24.27 30.68 23.61 31.96 23.61C33.24 23.61 33.88 24.27 33.88 25.59V43.26C33.88 44.58 33.24 45.24 31.96 45.24C30.68 45.24 30.04 44.58 30.04 43.26V35.88H19.15V43.26C19.15 44.58 18.51 45.24 17.23 45.24ZM40.5531 45C39.1931 45 38.5131 44.32 38.5131 42.96V25.89C38.5131 24.53 39.1931 23.85 40.5531 23.85L51.2631 23.85C52.3031 23.85 52.8231 24.35 52.8231 25.35C52.8231 26.39 52.3031 26.91 51.2631 26.91L42.2031 26.91V32.73H50.6031C51.6431 32.73 52.1631 33.24 52.1631 34.26C52.1631 35.28 51.6431 35.79 50.6031 35.79H42.2031V41.94H51.2631C52.3031 41.94 52.8231 42.45 52.8231 43.47C52.8231 44.49 52.3031 45 51.2631 45H40.5531ZM58.3635 45C57.0635 45 56.4135 44.34 56.4135 43.02V25.71C56.4135 24.41 57.0535 23.76 58.3335 23.76C59.6135 23.76 60.2535 24.41 60.2535 25.71V41.73H68.9535C70.0735 41.73 70.6335 42.27 70.6335 43.35C70.6335 44.45 70.0735 45 68.9535 45H58.3635ZM75.1792 45.24C73.8992 45.24 73.2592 44.58 73.2592 43.26V25.8C73.2592 24.5 73.9092 23.85 75.2092 23.85H82.4392C84.7592 23.85 86.5492 24.43 87.8092 25.59C89.0692 26.75 89.6992 28.37 89.6992 30.45C89.6992 32.53 89.0692 34.16 87.8092 35.34C86.5492 36.5 84.7592 37.08 82.4392 37.08H77.0992V43.26C77.0992 44.58 76.4592 45.24 75.1792 45.24ZM77.0992 34.05H81.8392C84.5992 34.05 85.9792 32.85 85.9792 30.45C85.9792 28.07 84.5992 26.88 81.8392 26.88H77.0992V34.05Z" fill="#0066B3"/>
</svg>
